<svg width="240" height="240" viewBox="0 0 240 240" fill="none" xmlns="http://www.w3.org/2000/svg">
<g opacity="0.85">
<path d="M132.969 113.897C133.766 112.216 133.051 110.207 131.369 109.409C129.688 108.611 127.679 109.327 126.881 111.008C125.442 114.04 122.344 116 118.989 116C115.634 116 112.536 114.04 111.097 111.008C110.299 109.327 108.29 108.611 106.609 109.409C104.928 110.207 104.212 112.216 105.009 113.897C107.558 119.268 113.045 122.738 118.989 122.738C124.932 122.738 130.42 119.267 132.969 113.897Z" fill="#91B3FA"/>
<path d="M94.1022 100.022C96.7898 100.022 98.9686 96.7791 98.9686 92.7786C98.9686 88.778 96.7898 85.5349 94.1022 85.5349C91.4146 85.5349 89.2358 88.778 89.2358 92.7786C89.2358 96.7791 91.4146 100.022 94.1022 100.022Z" fill="#91B3FA"/>
<path d="M143.876 100.022C146.564 100.022 148.742 96.7791 148.742 92.7786C148.742 88.778 146.564 85.5349 143.876 85.5349C141.188 85.5349 139.01 88.778 139.01 92.7786C139.01 96.7791 141.188 100.022 143.876 100.022Z" fill="#91B3FA"/>
<path d="M192.225 148.072C191.831 146.254 190.039 145.099 188.219 145.493L150.912 153.579C149.093 153.973 147.939 155.767 148.333 157.585C148.674 159.163 150.071 160.241 151.622 160.241C151.858 160.241 152.098 160.216 152.339 160.164L189.646 152.078C191.465 151.684 192.619 149.891 192.225 148.072Z" fill="#91B3FA"/>
<path d="M188.219 158.013L150.911 166.099C149.093 166.493 147.938 168.286 148.332 170.105C148.674 171.683 150.07 172.761 151.621 172.761C151.858 172.761 152.098 172.736 152.338 172.684L189.646 164.598C191.464 164.204 192.619 162.41 192.225 160.592C191.831 158.773 190.039 157.619 188.219 158.013Z" fill="#91B3FA"/>
<path d="M209.825 136.936H207.809V130.983C207.809 126.822 205.95 122.937 202.708 120.323C199.467 117.711 195.277 116.718 191.211 117.602L173.649 121.407C174.819 118.25 175.514 114.918 175.69 111.525C175.803 109.305 175.892 107.081 175.965 104.855C182.729 103.379 187.811 97.3468 187.811 90.1463C187.811 82.8617 182.614 76.7699 175.734 75.3822C175.328 66.9423 174.629 58.5114 173.641 50.1267C181.525 41.7151 187.722 32.3448 189.667 25.4543C190.902 21.0825 190.55 17.5844 188.623 15.058C186.844 12.7266 184.419 11.4867 181.609 11.4728C178.393 11.4611 174.879 13.0037 170.876 16.1855C171.027 13.2984 170.521 10.9144 169.357 9.06318C168.192 7.20926 165.809 5 161.073 5C154.774 5 149.825 8.53535 146.209 12.6201C145.855 10.9903 145.254 9.46928 144.301 8.21686C142.701 6.11271 140.36 5 137.533 5C132.073 5 127.766 9.52857 123.48 15.0189C121.684 14.0059 119.193 12.7189 116.245 11.511C114.907 10.9661 113.529 10.4621 112.135 10.0079C107.184 8.42035 102.538 7.72855 98.3275 7.95137C98.2974 7.95271 98.2556 7.95586 98.2165 7.95945C98.2053 7.9599 98.194 7.96035 98.1824 7.96125C97.5597 7.99674 96.9542 8.05199 96.3235 8.13105C89.0641 9.0542 83.3316 12.7324 79.2447 19.0785C71.9336 16.5175 60.1362 15.5948 53.7075 26.0154C52.7304 27.5988 53.2219 29.6747 54.8058 30.6517C55.3574 30.9918 55.9679 31.154 56.5717 31.154C57.7019 31.154 58.8056 30.5857 59.4422 29.5534C65.4509 19.8139 78.6463 26.0751 79.1975 26.3424C80.8448 27.1528 82.8371 26.4956 83.6784 24.8645C86.7754 18.8638 91.1898 15.5764 97.1662 14.8163C97.6258 14.7588 98.0723 14.7179 98.5301 14.691C98.5997 14.6883 98.6711 14.6834 98.7434 14.6775C102.12 14.5073 105.932 15.0957 110.062 16.42C111.289 16.8194 112.514 17.2673 113.696 17.7493C115.913 18.6576 117.855 19.6257 119.355 20.4396C115.82 25.0639 112.176 29.4182 108.385 30.8184C106.639 31.463 105.747 33.4005 106.391 35.1462C107.036 36.8918 108.974 37.784 110.719 37.1398C116.942 34.8416 121.719 28.5063 126.339 22.3798C130.101 17.3912 134.364 11.7383 137.533 11.7383C138.437 11.7383 138.731 12.0253 138.936 12.2944C140.596 14.4731 139.793 21.2159 138.728 25.0837C138.246 26.8195 139.215 28.6267 140.927 29.1864C142.64 29.747 144.489 28.8607 145.126 27.1761C145.184 27.0216 151.239 11.7383 161.073 11.7383C163.079 11.7383 163.51 12.4229 163.652 12.6475C165.214 15.1267 163.079 22.2612 161.145 26.3002C160.399 27.8518 160.943 29.7165 162.406 30.6239C163.869 31.5313 165.782 31.189 166.84 29.8306C166.863 29.8 169.239 26.762 172.45 23.7414C177.747 18.7573 180.58 18.2106 181.563 18.2106H181.576C182.165 18.2138 182.677 18.3737 183.265 19.1446C183.805 19.8525 183.774 21.5263 183.182 23.6228C179.875 35.3357 160.931 56.635 146.089 62.3693C126.726 69.851 100.844 65.8085 88.3948 53.3588C87.4937 52.4577 86.1617 52.1424 84.9524 52.5431C83.7431 52.9442 82.8631 53.9927 82.6789 55.2537C82.6713 55.3049 81.9004 60.4228 79.2163 65.5331C75.8867 71.8738 71.2634 75.0889 65.4752 75.0889C65.4707 75.0889 65.4667 75.0894 65.4626 75.0894C65.3827 75.0876 65.3032 75.0844 65.2232 75.0844C63.4667 75.0844 61.7808 75.3899 60.2117 75.9456C56.7541 61.3325 55.4091 49.5234 56.2267 40.8167C56.4005 38.9641 55.0398 37.3213 53.1873 37.1474C51.3351 36.974 49.6919 38.3343 49.5181 40.1869C48.5877 50.0966 50.1771 63.4465 54.229 79.8708C51.7116 82.5639 50.1663 86.177 50.1663 90.1463C50.1663 97.3481 55.2501 103.382 62.0167 104.856C62.0899 107.084 62.1784 109.309 62.2925 111.524C62.4578 114.773 63.102 117.974 64.185 121.016L48.4305 117.602C44.3642 116.718 40.173 117.71 36.9314 120.323C33.6898 122.937 31.831 126.822 31.831 130.983V136.936H29.8144C22.7487 136.936 17 142.685 17 149.75V158.229C17 165.294 22.7487 171.043 29.8144 171.043H31.831V206.919C31.831 213.321 36.3712 218.951 42.6266 220.306L110.077 234.924C110.081 234.925 110.085 234.925 110.088 234.925C110.181 234.945 110.277 234.96 110.372 234.971C110.394 234.974 110.415 234.979 110.437 234.981C110.548 234.993 110.661 234.999 110.776 234.999C110.781 234.999 110.786 235 110.791 235H128.849C128.854 235 128.859 234.999 128.864 234.999C128.979 234.999 129.092 234.993 129.203 234.981C129.225 234.979 129.246 234.974 129.267 234.971C129.363 234.96 129.458 234.945 129.551 234.925C129.555 234.925 129.559 234.925 129.563 234.924L197.013 220.306C203.268 218.951 207.808 213.321 207.808 206.919V202.325C207.808 200.464 206.3 198.956 204.439 198.956C202.579 198.956 201.07 200.464 201.07 202.325V206.919C201.07 210.172 198.764 213.032 195.586 213.721L132.218 227.454V137.281L192.64 124.186C194.704 123.738 196.833 124.242 198.479 125.569C200.126 126.897 201.071 128.87 201.071 130.983V138.053C196.602 140.056 193.479 144.544 193.479 149.75V158.229C193.479 163.435 196.602 167.923 201.071 169.926V188.848C201.071 190.709 202.579 192.217 204.44 192.217C206.301 192.217 207.809 190.709 207.809 188.848V171.043H209.826C216.892 171.043 222.64 165.294 222.64 158.229V149.75C222.64 142.684 216.891 136.936 209.825 136.936ZM181.073 90.1458C181.073 93.532 179.036 96.447 176.126 97.7439C176.192 92.6641 176.152 87.5758 176.005 82.4862C178.981 83.7552 181.073 86.7102 181.073 90.1458ZM56.9055 90.1458C56.9055 86.7138 58.9934 83.7611 61.9646 82.4898C61.8195 87.5673 61.7858 92.6619 61.8531 97.7439C58.9422 96.4475 56.9055 93.5325 56.9055 90.1458ZM69.0227 111.179C68.5173 101.39 68.4248 91.4499 68.7374 81.5833C75.6217 80.5393 81.2639 76.1284 85.1829 68.666C86.4371 66.2779 87.3409 63.8984 87.9788 61.8693C94.8438 66.9863 103.905 70.5401 114.086 72.0378C126.078 73.8019 138.306 72.6007 148.518 68.6552C154.775 66.2379 161.418 61.6442 167.526 56.1332C169.41 74.4335 169.895 92.918 168.96 111.179C168.741 115.423 167.505 119.55 165.38 123.2L128.488 131.195H111.152L72.3635 122.789C70.3829 119.245 69.2307 115.262 69.0227 111.179ZM114.161 137.933H125.48V228.262H114.161V137.933ZM23.7392 158.229V149.75C23.7392 146.4 26.465 143.674 29.8153 143.674H33.348C36.6982 143.674 39.4241 146.4 39.4241 149.75V158.229C39.4241 161.579 36.6982 164.305 33.348 164.305H29.8153C26.465 164.305 23.7392 161.579 23.7392 158.229ZM38.5701 206.919V169.926C43.0394 167.923 46.1619 163.435 46.1619 158.229V149.75C46.1619 144.544 43.0394 140.056 38.5701 138.053V130.983C38.5701 128.87 39.5148 126.897 41.1617 125.569C42.8085 124.242 44.9369 123.738 47.0029 124.187L107.423 137.281V227.454L44.0542 213.721C40.8764 213.032 38.5701 210.172 38.5701 206.919ZM215.902 158.229C215.902 161.579 213.176 164.305 209.825 164.305H206.293C202.942 164.305 200.217 161.579 200.217 158.229V149.75C200.217 146.4 202.942 143.674 206.293 143.674H209.825C213.176 143.674 215.902 146.4 215.902 149.75V158.229Z" fill="#91B3FA"/>
</g>
</svg>
