<svg width="200" height="200" viewBox="0 0 200 200" fill="none" xmlns="http://www.w3.org/2000/svg">
<path d="M166.667 50.0001H141.667V33.3334C141.667 24.1417 134.192 16.6667 125 16.6667H75C65.8083 16.6667 58.3333 24.1417 58.3333 33.3334V50.0001H33.3333C24.1416 50.0001 16.6666 57.4751 16.6666 66.6668V91.6668H183.333V66.6668C183.333 57.4751 175.858 50.0001 166.667 50.0001ZM75 33.3334H125V50.0001H75V33.3334ZM116.667 116.667H83.3333V100H16.6666V158.333C16.6666 167.525 24.1416 175 33.3333 175H166.667C175.858 175 183.333 167.525 183.333 158.333V100H116.667V116.667Z" fill="#484BF2"/>
</svg>
