<svg width="250" height="93" viewBox="0 0 250 93" fill="none" xmlns="http://www.w3.org/2000/svg">
<path d="M113.239 23.5215V71.9086" stroke="#23213D"/>
<path d="M132.823 72.4328C134.581 72.4328 136.149 72.1418 137.523 71.5591C138.909 70.9765 140.004 70.1378 140.808 69.043C141.612 67.9361 142.013 66.6026 142.013 65.0417C142.013 63.8535 141.792 62.8691 141.35 62.0887C140.919 61.2966 140.371 60.6617 139.707 60.1841C139.054 59.6949 138.385 59.3221 137.698 59.0658C137.01 58.7979 136.411 58.5941 135.898 58.4543L130.97 57.004C130.318 56.8177 129.643 56.5788 128.944 56.2876C128.256 55.9964 127.674 55.5945 127.196 55.082C126.731 54.5694 126.497 53.888 126.497 53.0376C126.497 52.1989 126.753 51.4534 127.266 50.8011C127.779 50.1371 128.478 49.6187 129.363 49.246C130.248 48.8615 131.25 48.6752 132.368 48.6868C134.127 48.6984 135.636 49.1935 136.894 50.172C138.163 51.1389 138.927 52.4377 139.183 54.0685L141.874 53.5793C141.466 51.3194 140.412 49.5372 138.711 48.2325C137.01 46.9162 134.902 46.2522 132.386 46.2406C130.732 46.229 129.258 46.5085 127.965 47.0793C126.672 47.6384 125.653 48.4363 124.907 49.4731C124.162 50.4982 123.789 51.7213 123.789 53.1425C123.789 54.8315 124.296 56.1478 125.309 57.0914C126.334 58.0233 127.616 58.7164 129.153 59.1707L135.531 61.0753C136.114 61.25 136.702 61.4888 137.296 61.7917C137.89 62.0945 138.385 62.5139 138.781 63.0497C139.189 63.5855 139.393 64.2845 139.393 65.1465C139.393 66.1366 139.113 66.9928 138.554 67.715C137.995 68.4375 137.226 68.9966 136.247 69.3925C135.28 69.7769 134.174 69.9691 132.927 69.9691C131.052 69.9691 129.439 69.5087 128.087 68.5887C126.736 67.6566 125.851 66.3755 125.432 64.7446L122.811 65.1814C123.102 66.6725 123.702 67.9597 124.61 69.043C125.519 70.1263 126.672 70.965 128.07 71.5591C129.479 72.1418 131.064 72.4328 132.823 72.4328ZM150.556 71.9086H153.142V61.3723L161.546 46.7473H158.576L151.849 58.4368L145.087 46.7473H142.116L150.556 61.3723V71.9086ZM171.659 72.4328C173.418 72.4328 174.985 72.1418 176.36 71.5591C177.746 70.9765 178.841 70.1378 179.645 69.043C180.448 67.9361 180.85 66.6026 180.85 65.0417C180.85 63.8535 180.629 62.8691 180.186 62.0887C179.755 61.2966 179.208 60.6617 178.544 60.1841C177.891 59.6949 177.222 59.3221 176.534 59.0658C175.847 58.7979 175.247 58.5941 174.735 58.4543L169.807 57.004C169.155 56.8177 168.479 56.5788 167.78 56.2876C167.093 55.9964 166.511 55.5945 166.033 55.082C165.567 54.5694 165.334 53.888 165.334 53.0376C165.334 52.1989 165.59 51.4534 166.103 50.8011C166.616 50.1371 167.315 49.6187 168.2 49.246C169.085 48.8615 170.087 48.6752 171.205 48.6868C172.964 48.6984 174.473 49.1935 175.731 50.172C177 51.1389 177.764 52.4377 178.02 54.0685L180.71 53.5793C180.302 51.3194 179.249 49.5372 177.548 48.2325C175.847 46.9162 173.739 46.2522 171.223 46.2406C169.569 46.229 168.095 46.5085 166.802 47.0793C165.509 47.6384 164.489 48.4363 163.744 49.4731C162.999 50.4982 162.626 51.7213 162.626 53.1425C162.626 54.8315 163.132 56.1478 164.146 57.0914C165.171 58.0233 166.452 58.7164 167.99 59.1707L174.368 61.0753C174.95 61.25 175.538 61.4888 176.132 61.7917C176.727 62.0945 177.222 62.5139 177.618 63.0497C178.026 63.5855 178.229 64.2845 178.229 65.1465C178.229 66.1366 177.95 66.9928 177.391 67.715C176.831 68.4375 176.063 68.9966 175.084 69.3925C174.117 69.7769 173.011 69.9691 171.764 69.9691C169.889 69.9691 168.276 69.5087 166.924 68.5887C165.573 67.6566 164.688 66.3755 164.268 64.7446L161.647 65.1814C161.938 66.6725 162.538 67.9597 163.447 69.043C164.356 70.1263 165.509 70.965 166.907 71.5591C168.316 72.1418 169.901 72.4328 171.659 72.4328ZM191.149 71.9086H193.718V49.211H202.507V46.7473H182.36V49.211H191.149V71.9086ZM205.309 71.9086H221.034V69.4449H207.877V60.3763H218.938V57.9126H207.877V49.211H221.034V46.7473H205.309V71.9086ZM225.239 71.9086H227.703V52.4785L236.649 71.9086H238.309L247.273 52.4785V71.8911H249.719V46.7473H247.325L237.488 67.9072L227.598 46.7473H225.239V71.9086Z" fill="#23213D"/>
<path d="M23.5888 72.9166C27.285 72.9166 30.5444 72.1552 33.367 70.6317C36.2119 69.086 38.4409 66.9242 40.0538 64.1465C41.6667 61.3687 42.4732 58.1317 42.4732 54.4355V23.5215H37.5V53.797C37.5 56.306 37.0744 58.4789 36.2232 60.3158C35.3943 62.1304 34.2855 63.6312 32.8966 64.8185C31.5301 65.9834 30.0291 66.8459 28.3939 67.4059C26.7586 67.9657 25.1568 68.2459 23.5888 68.2459C22.0431 68.2459 20.4525 67.9657 18.8172 67.4059C17.182 66.8459 15.6699 65.9834 14.281 64.8185C12.9145 63.6312 11.8056 62.1304 10.9543 60.3158C10.1031 58.4789 9.67746 56.306 9.67746 53.797V23.5215L4.70435 23.5551V54.4355C4.70435 58.1541 5.5108 61.4023 7.1237 64.1801C8.7366 66.9578 10.9656 69.1082 13.8105 70.6317C16.6555 72.1552 19.9149 72.9166 23.5888 72.9166ZM51.8917 71.9086H56.6296V34.543L73.8341 71.9086H77.0263L94.2642 34.543V71.875H98.9685V23.5215H94.365L75.447 64.2137L56.428 23.5215H51.8917V71.9086Z" fill="#23213D"/>
</svg>
