<svg width="79" height="28" viewBox="0 0 79 28" fill="none" xmlns="http://www.w3.org/2000/svg">
<path d="M13.1133 15.0039C13.1133 16.1992 12.7734 17.1133 12.0938 17.7461C11.4219 18.3711 10.4688 18.6836 9.23438 18.6836C8.00781 18.6836 7.02344 18.2734 6.28125 17.4531C5.54688 16.625 5.17969 15.5 5.17969 14.0781V12.7891C5.17969 11.4141 5.55078 10.3164 6.29297 9.49609C7.04297 8.66797 8.02344 8.25391 9.23438 8.25391C10.4844 8.25391 11.4453 8.57422 12.1172 9.21484C12.7891 9.85547 13.125 10.7578 13.125 11.9219H11.4141C11.4141 11.1484 11.2266 10.5977 10.8516 10.2695C10.4844 9.93359 9.94531 9.76562 9.23438 9.76562C8.5 9.76562 7.92188 10.0352 7.5 10.5742C7.07812 11.1133 6.86719 11.8633 6.86719 12.8242V14.1484C6.86719 15.0859 7.07812 15.8242 7.5 16.3633C7.92188 16.9023 8.5 17.1719 9.23438 17.1719C9.95312 17.1719 10.4922 17.0078 10.8516 16.6797C11.2188 16.3516 11.4023 15.793 11.4023 15.0039H13.1133ZM2.41406 13.457C2.41406 14.8008 2.72656 16.0469 3.35156 17.1953C3.97656 18.3359 4.82422 19.2305 5.89453 19.8789C6.97266 20.5273 8.13672 20.8516 9.38672 20.8516C10.6367 20.8516 11.7969 20.5273 12.8672 19.8789C13.9375 19.2305 14.7852 18.3359 15.4102 17.1953C16.0352 16.0469 16.3477 14.8008 16.3477 13.457C16.3477 12.1289 16.0391 10.8984 15.4219 9.76562C14.8047 8.63281 13.957 7.74219 12.8789 7.09375C11.8086 6.4375 10.6445 6.10938 9.38672 6.10938C8.13672 6.10938 6.97266 6.43359 5.89453 7.08203C4.81641 7.72266 3.96484 8.61328 3.33984 9.75391C2.72266 10.8945 2.41406 12.1289 2.41406 13.457ZM1.06641 13.457C1.06641 11.8789 1.42969 10.4141 2.15625 9.0625C2.89062 7.71094 3.90234 6.64844 5.19141 5.875C6.48828 5.09375 7.88672 4.70312 9.38672 4.70312C10.8867 4.70312 12.2812 5.09375 13.5703 5.875C14.8594 6.64844 15.8672 7.71094 16.5938 9.0625C17.3281 10.4141 17.6953 11.8789 17.6953 13.457C17.6953 14.9961 17.3438 16.4375 16.6406 17.7812C15.9375 19.125 14.9375 20.207 13.6406 21.0273C12.3516 21.8398 10.9336 22.2461 9.38672 22.2461C7.84766 22.2461 6.42969 21.8438 5.13281 21.0391C3.84375 20.2266 2.84375 19.1484 2.13281 17.8047C1.42188 16.4609 1.06641 15.0117 1.06641 13.457ZM37.418 22H26.2383V20.4414L32.1445 13.8789C33.0195 12.8867 33.6211 12.082 33.9492 11.4648C34.2852 10.8398 34.4531 10.1953 34.4531 9.53125C34.4531 8.64062 34.1836 7.91016 33.6445 7.33984C33.1055 6.76953 32.3867 6.48438 31.4883 6.48438C30.4102 6.48438 29.5703 6.79297 28.9688 7.41016C28.375 8.01953 28.0781 8.87109 28.0781 9.96484H25.9102C25.9102 8.39453 26.4141 7.125 27.4219 6.15625C28.4375 5.1875 29.793 4.70312 31.4883 4.70312C33.0742 4.70312 34.3281 5.12109 35.25 5.95703C36.1719 6.78516 36.6328 7.89062 36.6328 9.27344C36.6328 10.9531 35.5625 12.9531 33.4219 15.2734L28.8516 20.2305H37.418V22ZM50.4141 14.7227C50.4141 17.2617 49.9805 19.1484 49.1133 20.3828C48.2461 21.6172 46.8906 22.2344 45.0469 22.2344C43.2266 22.2344 41.8789 21.6328 41.0039 20.4297C40.1289 19.2188 39.6758 17.4141 39.6445 15.0156V12.1211C39.6445 9.61328 40.0781 7.75 40.9453 6.53125C41.8125 5.3125 43.1719 4.70312 45.0234 4.70312C46.8594 4.70312 48.2109 5.29297 49.0781 6.47266C49.9453 7.64453 50.3906 9.45703 50.4141 11.9102V14.7227ZM48.2461 11.7578C48.2461 9.92188 47.9883 8.58594 47.4727 7.75C46.957 6.90625 46.1406 6.48438 45.0234 6.48438C43.9141 6.48438 43.1055 6.90234 42.5977 7.73828C42.0898 8.57422 41.8281 9.85938 41.8125 11.5938V15.0625C41.8125 16.9062 42.0781 18.2695 42.6094 19.1523C43.1484 20.0273 43.9609 20.4648 45.0469 20.4648C46.1172 20.4648 46.9102 20.0508 47.4258 19.2227C47.9492 18.3945 48.2227 17.0898 48.2461 15.3086V11.7578ZM64.3711 22H53.1914V20.4414L59.0977 13.8789C59.9727 12.8867 60.5742 12.082 60.9023 11.4648C61.2383 10.8398 61.4062 10.1953 61.4062 9.53125C61.4062 8.64062 61.1367 7.91016 60.5977 7.33984C60.0586 6.76953 59.3398 6.48438 58.4414 6.48438C57.3633 6.48438 56.5234 6.79297 55.9219 7.41016C55.3281 8.01953 55.0312 8.87109 55.0312 9.96484H52.8633C52.8633 8.39453 53.3672 7.125 54.375 6.15625C55.3906 5.1875 56.7461 4.70312 58.4414 4.70312C60.0273 4.70312 61.2812 5.12109 62.2031 5.95703C63.125 6.78516 63.5859 7.89062 63.5859 9.27344C63.5859 10.9531 62.5156 12.9531 60.375 15.2734L55.8047 20.2305H64.3711V22ZM73.793 22H71.6133V7.55078L67.2422 9.15625V7.1875L73.4531 4.85547H73.793V22Z" fill="#6C7889"/>
</svg>
