<svg width="200" height="200" viewBox="0 0 200 200" fill="none" xmlns="http://www.w3.org/2000/svg">
<path d="M120.289 96.875L84.375 60.3594V94.5312C84.375 95.1528 84.6219 95.749 85.0615 96.1885C85.501 96.6281 86.0971 96.875 86.7188 96.875H120.289Z" fill="#484BF2"/>
<path d="M71.875 104.688V56.25H23.4375C22.1943 56.25 21.002 56.7439 20.1229 57.6229C19.2439 58.502 18.75 59.6943 18.75 60.9375V189.062C18.75 190.306 19.2439 191.498 20.1229 192.377C21.002 193.256 22.1943 193.75 23.4375 193.75H120.312C121.556 193.75 122.748 193.256 123.627 192.377C124.506 191.498 125 190.306 125 189.062V109.375H76.5625C75.3193 109.375 74.127 108.881 73.2479 108.002C72.3689 107.123 71.875 105.931 71.875 104.688Z" fill="#484BF2"/>
<path d="M142.969 46.875H176.539L140.625 10.3594V44.5312C140.625 45.1529 140.872 45.749 141.311 46.1885C141.751 46.6281 142.347 46.875 142.969 46.875Z" fill="#484BF2"/>
<path d="M132.812 59.375C131.569 59.375 130.377 58.8811 129.498 58.0021C128.619 57.123 128.125 55.9307 128.125 54.6875V6.25H67.1875C65.9443 6.25 64.752 6.74386 63.8729 7.62294C62.9939 8.50201 62.5 9.6943 62.5 10.9375V43.75H78.9531C81.0532 43.7584 83.1309 44.1817 85.0669 44.9955C87.0029 45.8093 88.759 46.9976 90.2344 48.4922L132.875 91.8516C135.85 94.8699 137.511 98.9418 137.496 103.18V156.25H176.562C177.806 156.25 178.998 155.756 179.877 154.877C180.756 153.998 181.25 152.806 181.25 151.562V59.375H132.812Z" fill="#484BF2"/>
</svg>
