<svg width="357" height="185" viewBox="0 0 357 185" fill="none" xmlns="http://www.w3.org/2000/svg">
<path d="M222.992 55.9375V67.5391C222.984 69.1484 222.477 70.4648 221.469 71.4883C220.469 72.5117 219.109 73.0859 217.391 73.2109L216.793 73.2344C214.926 73.2344 213.438 72.7305 212.328 71.7227C211.219 70.7148 210.656 69.3281 210.641 67.5625V55.9375H212.867V67.4922C212.867 68.7266 213.207 69.6875 213.887 70.375C214.566 71.0547 215.535 71.3945 216.793 71.3945C218.066 71.3945 219.039 71.0547 219.711 70.375C220.391 69.6953 220.73 68.7383 220.73 67.5039V55.9375H222.992ZM228.254 60.3203L228.324 61.9141C229.293 60.6953 230.559 60.0859 232.121 60.0859C234.801 60.0859 236.152 61.5977 236.176 64.6211V73H234.008V64.6094C234 63.6953 233.789 63.0195 233.375 62.582C232.969 62.1445 232.332 61.9258 231.465 61.9258C230.762 61.9258 230.145 62.1133 229.613 62.4883C229.082 62.8633 228.668 63.3555 228.371 63.9648V73H226.203V60.3203H228.254ZM241.801 73H239.633V60.3203H241.801V73ZM239.457 56.957C239.457 56.6055 239.562 56.3086 239.773 56.0664C239.992 55.8242 240.312 55.7031 240.734 55.7031C241.156 55.7031 241.477 55.8242 241.695 56.0664C241.914 56.3086 242.023 56.6055 242.023 56.957C242.023 57.3086 241.914 57.6016 241.695 57.8359C241.477 58.0703 241.156 58.1875 240.734 58.1875C240.312 58.1875 239.992 58.0703 239.773 57.8359C239.562 57.6016 239.457 57.3086 239.457 56.957ZM249.465 70.0586L252.605 60.3203H254.82L250.273 73H248.621L244.027 60.3203H246.242L249.465 70.0586ZM262.004 73.2344C260.285 73.2344 258.887 72.6719 257.809 71.5469C256.73 70.4141 256.191 68.9023 256.191 67.0117V66.6133C256.191 65.3555 256.43 64.2344 256.906 63.25C257.391 62.2578 258.062 61.4844 258.922 60.9297C259.789 60.3672 260.727 60.0859 261.734 60.0859C263.383 60.0859 264.664 60.6289 265.578 61.7148C266.492 62.8008 266.949 64.3555 266.949 66.3789V67.2812H258.359C258.391 68.5312 258.754 69.543 259.449 70.3164C260.152 71.082 261.043 71.4648 262.121 71.4648C262.887 71.4648 263.535 71.3086 264.066 70.9961C264.598 70.6836 265.062 70.2695 265.461 69.7539L266.785 70.7852C265.723 72.418 264.129 73.2344 262.004 73.2344ZM261.734 61.8672C260.859 61.8672 260.125 62.1875 259.531 62.8281C258.938 63.4609 258.57 64.3516 258.43 65.5H264.781V65.3359C264.719 64.2344 264.422 63.3828 263.891 62.7812C263.359 62.1719 262.641 61.8672 261.734 61.8672ZM275.598 62.2656C275.27 62.2109 274.914 62.1836 274.531 62.1836C273.109 62.1836 272.145 62.7891 271.637 64V73H269.469V60.3203H271.578L271.613 61.7852C272.324 60.6523 273.332 60.0859 274.637 60.0859C275.059 60.0859 275.379 60.1406 275.598 60.25V62.2656ZM284.984 69.6367C284.984 69.0508 284.762 68.5977 284.316 68.2773C283.879 67.9492 283.109 67.668 282.008 67.4336C280.914 67.1992 280.043 66.918 279.395 66.5898C278.754 66.2617 278.277 65.8711 277.965 65.418C277.66 64.9648 277.508 64.4258 277.508 63.8008C277.508 62.7617 277.945 61.8828 278.82 61.1641C279.703 60.4453 280.828 60.0859 282.195 60.0859C283.633 60.0859 284.797 60.457 285.688 61.1992C286.586 61.9414 287.035 62.8906 287.035 64.0469H284.855C284.855 63.4531 284.602 62.9414 284.094 62.5117C283.594 62.082 282.961 61.8672 282.195 61.8672C281.406 61.8672 280.789 62.0391 280.344 62.3828C279.898 62.7266 279.676 63.1758 279.676 63.7305C279.676 64.2539 279.883 64.6484 280.297 64.9141C280.711 65.1797 281.457 65.4336 282.535 65.6758C283.621 65.918 284.5 66.207 285.172 66.543C285.844 66.8789 286.34 67.2852 286.66 67.7617C286.988 68.2305 287.152 68.8047 287.152 69.4844C287.152 70.6172 286.699 71.5273 285.793 72.2148C284.887 72.8945 283.711 73.2344 282.266 73.2344C281.25 73.2344 280.352 73.0547 279.57 72.6953C278.789 72.3359 278.176 71.8359 277.73 71.1953C277.293 70.5469 277.074 69.8477 277.074 69.0977H279.242C279.281 69.8242 279.57 70.4023 280.109 70.832C280.656 71.2539 281.375 71.4648 282.266 71.4648C283.086 71.4648 283.742 71.3008 284.234 70.9727C284.734 70.6367 284.984 70.1914 284.984 69.6367ZM292.332 73H290.164V60.3203H292.332V73ZM289.988 56.957C289.988 56.6055 290.094 56.3086 290.305 56.0664C290.523 55.8242 290.844 55.7031 291.266 55.7031C291.688 55.7031 292.008 55.8242 292.227 56.0664C292.445 56.3086 292.555 56.6055 292.555 56.957C292.555 57.3086 292.445 57.6016 292.227 57.8359C292.008 58.0703 291.688 58.1875 291.266 58.1875C290.844 58.1875 290.523 58.0703 290.305 57.8359C290.094 57.6016 289.988 57.3086 289.988 56.957ZM298.754 57.25V60.3203H301.121V61.9961H298.754V69.8594C298.754 70.3672 298.859 70.75 299.07 71.0078C299.281 71.2578 299.641 71.3828 300.148 71.3828C300.398 71.3828 300.742 71.3359 301.18 71.2422V73C300.609 73.1562 300.055 73.2344 299.516 73.2344C298.547 73.2344 297.816 72.9414 297.324 72.3555C296.832 71.7695 296.586 70.9375 296.586 69.8594V61.9961H294.277V60.3203H296.586V57.25H298.754ZM307.812 69.8242L310.766 60.3203H313.086L307.988 74.957C307.199 77.0664 305.945 78.1211 304.227 78.1211L303.816 78.0859L303.008 77.9336V76.1758L303.594 76.2227C304.328 76.2227 304.898 76.0742 305.305 75.7773C305.719 75.4805 306.059 74.9375 306.324 74.1484L306.805 72.8594L302.281 60.3203H304.648L307.812 69.8242ZM213.887 83.9375L219.465 97.8594L225.043 83.9375H227.961V101H225.711V94.3555L225.922 87.1836L220.32 101H218.598L213.008 87.2188L213.23 94.3555V101H210.98V83.9375H213.887ZM239.422 101C239.297 100.75 239.195 100.305 239.117 99.6641C238.109 100.711 236.906 101.234 235.508 101.234C234.258 101.234 233.23 100.883 232.426 100.18C231.629 99.4688 231.23 98.5703 231.23 97.4844C231.23 96.1641 231.73 95.1406 232.73 94.4141C233.738 93.6797 235.152 93.3125 236.973 93.3125H239.082V92.3164C239.082 91.5586 238.855 90.957 238.402 90.5117C237.949 90.0586 237.281 89.832 236.398 89.832C235.625 89.832 234.977 90.0273 234.453 90.418C233.93 90.8086 233.668 91.2812 233.668 91.8359H231.488C231.488 91.2031 231.711 90.5938 232.156 90.0078C232.609 89.4141 233.219 88.9453 233.984 88.6016C234.758 88.2578 235.605 88.0859 236.527 88.0859C237.988 88.0859 239.133 88.4531 239.961 89.1875C240.789 89.9141 241.219 90.918 241.25 92.1992V98.0352C241.25 99.1992 241.398 100.125 241.695 100.812V101H239.422ZM235.824 99.3477C236.504 99.3477 237.148 99.1719 237.758 98.8203C238.367 98.4688 238.809 98.0117 239.082 97.4492V94.8477H237.383C234.727 94.8477 233.398 95.625 233.398 97.1797C233.398 97.8594 233.625 98.3906 234.078 98.7734C234.531 99.1562 235.113 99.3477 235.824 99.3477ZM246.699 88.3203L246.77 89.9141C247.738 88.6953 249.004 88.0859 250.566 88.0859C253.246 88.0859 254.598 89.5977 254.621 92.6211V101H252.453V92.6094C252.445 91.6953 252.234 91.0195 251.82 90.582C251.414 90.1445 250.777 89.9258 249.91 89.9258C249.207 89.9258 248.59 90.1133 248.059 90.4883C247.527 90.8633 247.113 91.3555 246.816 91.9648V101H244.648V88.3203H246.699ZM265.719 101C265.594 100.75 265.492 100.305 265.414 99.6641C264.406 100.711 263.203 101.234 261.805 101.234C260.555 101.234 259.527 100.883 258.723 100.18C257.926 99.4688 257.527 98.5703 257.527 97.4844C257.527 96.1641 258.027 95.1406 259.027 94.4141C260.035 93.6797 261.449 93.3125 263.27 93.3125H265.379V92.3164C265.379 91.5586 265.152 90.957 264.699 90.5117C264.246 90.0586 263.578 89.832 262.695 89.832C261.922 89.832 261.273 90.0273 260.75 90.418C260.227 90.8086 259.965 91.2812 259.965 91.8359H257.785C257.785 91.2031 258.008 90.5938 258.453 90.0078C258.906 89.4141 259.516 88.9453 260.281 88.6016C261.055 88.2578 261.902 88.0859 262.824 88.0859C264.285 88.0859 265.43 88.4531 266.258 89.1875C267.086 89.9141 267.516 90.918 267.547 92.1992V98.0352C267.547 99.1992 267.695 100.125 267.992 100.812V101H265.719ZM262.121 99.3477C262.801 99.3477 263.445 99.1719 264.055 98.8203C264.664 98.4688 265.105 98.0117 265.379 97.4492V94.8477H263.68C261.023 94.8477 259.695 95.625 259.695 97.1797C259.695 97.8594 259.922 98.3906 260.375 98.7734C260.828 99.1562 261.41 99.3477 262.121 99.3477ZM270.43 94.5547C270.43 92.5781 270.887 91.0078 271.801 89.8438C272.715 88.6719 273.926 88.0859 275.434 88.0859C276.98 88.0859 278.188 88.6328 279.055 89.7266L279.16 88.3203H281.141V100.695C281.141 102.336 280.652 103.629 279.676 104.574C278.707 105.52 277.402 105.992 275.762 105.992C274.848 105.992 273.953 105.797 273.078 105.406C272.203 105.016 271.535 104.48 271.074 103.801L272.199 102.5C273.129 103.648 274.266 104.223 275.609 104.223C276.664 104.223 277.484 103.926 278.07 103.332C278.664 102.738 278.961 101.902 278.961 100.824V99.7344C278.094 100.734 276.91 101.234 275.41 101.234C273.926 101.234 272.723 100.637 271.801 99.4414C270.887 98.2461 270.43 96.6172 270.43 94.5547ZM272.609 94.8008C272.609 96.2305 272.902 97.3555 273.488 98.1758C274.074 98.9883 274.895 99.3945 275.949 99.3945C277.316 99.3945 278.32 98.7734 278.961 97.5312V91.7422C278.297 90.5312 277.301 89.9258 275.973 89.9258C274.918 89.9258 274.094 90.3359 273.5 91.1562C272.906 91.9766 272.609 93.1914 272.609 94.8008ZM289.684 101.234C287.965 101.234 286.566 100.672 285.488 99.5469C284.41 98.4141 283.871 96.9023 283.871 95.0117V94.6133C283.871 93.3555 284.109 92.2344 284.586 91.25C285.07 90.2578 285.742 89.4844 286.602 88.9297C287.469 88.3672 288.406 88.0859 289.414 88.0859C291.062 88.0859 292.344 88.6289 293.258 89.7148C294.172 90.8008 294.629 92.3555 294.629 94.3789V95.2812H286.039C286.07 96.5312 286.434 97.543 287.129 98.3164C287.832 99.082 288.723 99.4648 289.801 99.4648C290.566 99.4648 291.215 99.3086 291.746 98.9961C292.277 98.6836 292.742 98.2695 293.141 97.7539L294.465 98.7852C293.402 100.418 291.809 101.234 289.684 101.234ZM289.414 89.8672C288.539 89.8672 287.805 90.1875 287.211 90.8281C286.617 91.4609 286.25 92.3516 286.109 93.5H292.461V93.3359C292.398 92.2344 292.102 91.3828 291.57 90.7812C291.039 90.1719 290.32 89.8672 289.414 89.8672ZM299.188 88.3203L299.246 89.7266C300.176 88.6328 301.43 88.0859 303.008 88.0859C304.781 88.0859 305.988 88.7656 306.629 90.125C307.051 89.5156 307.598 89.0234 308.27 88.6484C308.949 88.2734 309.75 88.0859 310.672 88.0859C313.453 88.0859 314.867 89.5586 314.914 92.5039V101H312.746V92.6328C312.746 91.7266 312.539 91.0508 312.125 90.6055C311.711 90.1523 311.016 89.9258 310.039 89.9258C309.234 89.9258 308.566 90.168 308.035 90.6523C307.504 91.1289 307.195 91.7734 307.109 92.5859V101H304.93V92.6914C304.93 90.8477 304.027 89.9258 302.223 89.9258C300.801 89.9258 299.828 90.5312 299.305 91.7422V101H297.137V88.3203H299.188ZM323.457 101.234C321.738 101.234 320.34 100.672 319.262 99.5469C318.184 98.4141 317.645 96.9023 317.645 95.0117V94.6133C317.645 93.3555 317.883 92.2344 318.359 91.25C318.844 90.2578 319.516 89.4844 320.375 88.9297C321.242 88.3672 322.18 88.0859 323.188 88.0859C324.836 88.0859 326.117 88.6289 327.031 89.7148C327.945 90.8008 328.402 92.3555 328.402 94.3789V95.2812H319.812C319.844 96.5312 320.207 97.543 320.902 98.3164C321.605 99.082 322.496 99.4648 323.574 99.4648C324.34 99.4648 324.988 99.3086 325.52 98.9961C326.051 98.6836 326.516 98.2695 326.914 97.7539L328.238 98.7852C327.176 100.418 325.582 101.234 323.457 101.234ZM323.188 89.8672C322.312 89.8672 321.578 90.1875 320.984 90.8281C320.391 91.4609 320.023 92.3516 319.883 93.5H326.234V93.3359C326.172 92.2344 325.875 91.3828 325.344 90.7812C324.812 90.1719 324.094 89.8672 323.188 89.8672ZM332.973 88.3203L333.043 89.9141C334.012 88.6953 335.277 88.0859 336.84 88.0859C339.52 88.0859 340.871 89.5977 340.895 92.6211V101H338.727V92.6094C338.719 91.6953 338.508 91.0195 338.094 90.582C337.688 90.1445 337.051 89.9258 336.184 89.9258C335.48 89.9258 334.863 90.1133 334.332 90.4883C333.801 90.8633 333.387 91.3555 333.09 91.9648V101H330.922V88.3203H332.973ZM347.105 85.25V88.3203H349.473V89.9961H347.105V97.8594C347.105 98.3672 347.211 98.75 347.422 99.0078C347.633 99.2578 347.992 99.3828 348.5 99.3828C348.75 99.3828 349.094 99.3359 349.531 99.2422V101C348.961 101.156 348.406 101.234 347.867 101.234C346.898 101.234 346.168 100.941 345.676 100.355C345.184 99.7695 344.938 98.9375 344.938 97.8594V89.9961H342.629V88.3203H344.938V85.25H347.105ZM216.008 121.395C214.078 120.84 212.672 120.16 211.789 119.355C210.914 118.543 210.477 117.543 210.477 116.355C210.477 115.012 211.012 113.902 212.082 113.027C213.16 112.145 214.559 111.703 216.277 111.703C217.449 111.703 218.492 111.93 219.406 112.383C220.328 112.836 221.039 113.461 221.539 114.258C222.047 115.055 222.301 115.926 222.301 116.871H220.039C220.039 115.84 219.711 115.031 219.055 114.445C218.398 113.852 217.473 113.555 216.277 113.555C215.168 113.555 214.301 113.801 213.676 114.293C213.059 114.777 212.75 115.453 212.75 116.32C212.75 117.016 213.043 117.605 213.629 118.09C214.223 118.566 215.227 119.004 216.641 119.402C218.062 119.801 219.172 120.242 219.969 120.727C220.773 121.203 221.367 121.762 221.75 122.402C222.141 123.043 222.336 123.797 222.336 124.664C222.336 126.047 221.797 127.156 220.719 127.992C219.641 128.82 218.199 129.234 216.395 129.234C215.223 129.234 214.129 129.012 213.113 128.566C212.098 128.113 211.312 127.496 210.758 126.715C210.211 125.934 209.938 125.047 209.938 124.055H212.199C212.199 125.086 212.578 125.902 213.336 126.504C214.102 127.098 215.121 127.395 216.395 127.395C217.582 127.395 218.492 127.152 219.125 126.668C219.758 126.184 220.074 125.523 220.074 124.688C220.074 123.852 219.781 123.207 219.195 122.754C218.609 122.293 217.547 121.84 216.008 121.395ZM229.039 125.824L231.992 116.32H234.312L229.215 130.957C228.426 133.066 227.172 134.121 225.453 134.121L225.043 134.086L224.234 133.934V132.176L224.82 132.223C225.555 132.223 226.125 132.074 226.531 131.777C226.945 131.48 227.285 130.938 227.551 130.148L228.031 128.859L223.508 116.32H225.875L229.039 125.824ZM243.641 125.637C243.641 125.051 243.418 124.598 242.973 124.277C242.535 123.949 241.766 123.668 240.664 123.434C239.57 123.199 238.699 122.918 238.051 122.59C237.41 122.262 236.934 121.871 236.621 121.418C236.316 120.965 236.164 120.426 236.164 119.801C236.164 118.762 236.602 117.883 237.477 117.164C238.359 116.445 239.484 116.086 240.852 116.086C242.289 116.086 243.453 116.457 244.344 117.199C245.242 117.941 245.691 118.891 245.691 120.047H243.512C243.512 119.453 243.258 118.941 242.75 118.512C242.25 118.082 241.617 117.867 240.852 117.867C240.062 117.867 239.445 118.039 239 118.383C238.555 118.727 238.332 119.176 238.332 119.73C238.332 120.254 238.539 120.648 238.953 120.914C239.367 121.18 240.113 121.434 241.191 121.676C242.277 121.918 243.156 122.207 243.828 122.543C244.5 122.879 244.996 123.285 245.316 123.762C245.645 124.23 245.809 124.805 245.809 125.484C245.809 126.617 245.355 127.527 244.449 128.215C243.543 128.895 242.367 129.234 240.922 129.234C239.906 129.234 239.008 129.055 238.227 128.695C237.445 128.336 236.832 127.836 236.387 127.195C235.949 126.547 235.73 125.848 235.73 125.098H237.898C237.938 125.824 238.227 126.402 238.766 126.832C239.312 127.254 240.031 127.465 240.922 127.465C241.742 127.465 242.398 127.301 242.891 126.973C243.391 126.637 243.641 126.191 243.641 125.637ZM251.574 113.25V116.32H253.941V117.996H251.574V125.859C251.574 126.367 251.68 126.75 251.891 127.008C252.102 127.258 252.461 127.383 252.969 127.383C253.219 127.383 253.562 127.336 254 127.242V129C253.43 129.156 252.875 129.234 252.336 129.234C251.367 129.234 250.637 128.941 250.145 128.355C249.652 127.77 249.406 126.938 249.406 125.859V117.996H247.098V116.32H249.406V113.25H251.574ZM261.746 129.234C260.027 129.234 258.629 128.672 257.551 127.547C256.473 126.414 255.934 124.902 255.934 123.012V122.613C255.934 121.355 256.172 120.234 256.648 119.25C257.133 118.258 257.805 117.484 258.664 116.93C259.531 116.367 260.469 116.086 261.477 116.086C263.125 116.086 264.406 116.629 265.32 117.715C266.234 118.801 266.691 120.355 266.691 122.379V123.281H258.102C258.133 124.531 258.496 125.543 259.191 126.316C259.895 127.082 260.785 127.465 261.863 127.465C262.629 127.465 263.277 127.309 263.809 126.996C264.34 126.684 264.805 126.27 265.203 125.754L266.527 126.785C265.465 128.418 263.871 129.234 261.746 129.234ZM261.477 117.867C260.602 117.867 259.867 118.188 259.273 118.828C258.68 119.461 258.312 120.352 258.172 121.5H264.523V121.336C264.461 120.234 264.164 119.383 263.633 118.781C263.102 118.172 262.383 117.867 261.477 117.867ZM271.25 116.32L271.309 117.727C272.238 116.633 273.492 116.086 275.07 116.086C276.844 116.086 278.051 116.766 278.691 118.125C279.113 117.516 279.66 117.023 280.332 116.648C281.012 116.273 281.812 116.086 282.734 116.086C285.516 116.086 286.93 117.559 286.977 120.504V129H284.809V120.633C284.809 119.727 284.602 119.051 284.188 118.605C283.773 118.152 283.078 117.926 282.102 117.926C281.297 117.926 280.629 118.168 280.098 118.652C279.566 119.129 279.258 119.773 279.172 120.586V129H276.992V120.691C276.992 118.848 276.09 117.926 274.285 117.926C272.863 117.926 271.891 118.531 271.367 119.742V129H269.199V116.32H271.25Z" fill="#6C7889"/>
<line x1="181.5" y1="178" x2="181.5" y2="8" stroke="#6C7889"/>
<path d="M15.8 148.6C17.8133 148.6 19.6067 148.267 21.18 147.6C22.7667 146.933 24.02 145.973 24.94 144.72C25.86 143.453 26.32 141.927 26.32 140.14C26.32 138.78 26.0667 137.653 25.56 136.76C25.0667 135.853 24.44 135.127 23.68 134.58C22.9333 134.02 22.1667 133.593 21.38 133.3C20.5933 132.993 19.9067 132.76 19.32 132.6L13.68 130.94C12.9333 130.727 12.16 130.453 11.36 130.12C10.5733 129.787 9.90667 129.327 9.36 128.74C8.82667 128.153 8.56 127.373 8.56 126.4C8.56 125.44 8.85333 124.587 9.44 123.84C10.0267 123.08 10.8267 122.487 11.84 122.06C12.8533 121.62 14 121.407 15.28 121.42C17.2933 121.433 19.02 122 20.46 123.12C21.9133 124.227 22.7867 125.713 23.08 127.58L26.16 127.02C25.6933 124.433 24.4867 122.393 22.54 120.9C20.5933 119.393 18.18 118.633 15.3 118.62C13.4067 118.607 11.72 118.927 10.24 119.58C8.76 120.22 7.59333 121.133 6.74 122.32C5.88667 123.493 5.46 124.893 5.46 126.52C5.46 128.453 6.04 129.96 7.2 131.04C8.37333 132.107 9.84 132.9 11.6 133.42L18.9 135.6C19.5667 135.8 20.24 136.073 20.92 136.42C21.6 136.767 22.1667 137.247 22.62 137.86C23.0867 138.473 23.32 139.273 23.32 140.26C23.32 141.393 23 142.373 22.36 143.2C21.72 144.027 20.84 144.667 19.72 145.12C18.6133 145.56 17.3467 145.78 15.92 145.78C13.7733 145.78 11.9267 145.253 10.38 144.2C8.83333 143.133 7.82 141.667 7.34 139.8L4.34 140.3C4.67333 142.007 5.36 143.48 6.4 144.72C7.44 145.96 8.76 146.92 10.36 147.6C11.9733 148.267 13.7867 148.6 15.8 148.6ZM36.0975 148H39.0575V135.94L48.6775 119.2H45.2775L37.5775 132.58L29.8375 119.2H26.4375L36.0975 135.94V148ZM60.2531 148.6C62.2665 148.6 64.0598 148.267 65.6331 147.6C67.2198 146.933 68.4731 145.973 69.3931 144.72C70.3131 143.453 70.7731 141.927 70.7731 140.14C70.7731 138.78 70.5198 137.653 70.0131 136.76C69.5198 135.853 68.8931 135.127 68.1331 134.58C67.3865 134.02 66.6198 133.593 65.8331 133.3C65.0465 132.993 64.3598 132.76 63.7731 132.6L58.1331 130.94C57.3865 130.727 56.6131 130.453 55.8131 130.12C55.0265 129.787 54.3598 129.327 53.8131 128.74C53.2798 128.153 53.0131 127.373 53.0131 126.4C53.0131 125.44 53.3065 124.587 53.8931 123.84C54.4798 123.08 55.2798 122.487 56.2931 122.06C57.3065 121.62 58.4531 121.407 59.7331 121.42C61.7465 121.433 63.4731 122 64.9131 123.12C66.3665 124.227 67.2398 125.713 67.5331 127.58L70.6131 127.02C70.1465 124.433 68.9398 122.393 66.9931 120.9C65.0465 119.393 62.6331 118.633 59.7531 118.62C57.8598 118.607 56.1731 118.927 54.6931 119.58C53.2131 120.22 52.0465 121.133 51.1931 122.32C50.3398 123.493 49.9131 124.893 49.9131 126.52C49.9131 128.453 50.4931 129.96 51.6531 131.04C52.8265 132.107 54.2931 132.9 56.0531 133.42L63.3531 135.6C64.0198 135.8 64.6931 136.073 65.3731 136.42C66.0531 136.767 66.6198 137.247 67.0731 137.86C67.5398 138.473 67.7731 139.273 67.7731 140.26C67.7731 141.393 67.4531 142.373 66.8131 143.2C66.1731 144.027 65.2931 144.667 64.1731 145.12C63.0665 145.56 61.7998 145.78 60.3731 145.78C58.2265 145.78 56.3798 145.253 54.8331 144.2C53.2865 143.133 52.2731 141.667 51.7931 139.8L48.7931 140.3C49.1265 142.007 49.8131 143.48 50.8531 144.72C51.8931 145.96 53.2131 146.92 54.8131 147.6C56.4265 148.267 58.2398 148.6 60.2531 148.6ZM82.5616 148H85.5016V122.02H95.5616V119.2H72.5016V122.02H82.5616V148ZM98.7688 148H116.769V145.18H101.709V134.8H114.369V131.98H101.709V122.02H116.769V119.2H98.7688V148ZM121.581 148H124.401V125.76L134.641 148H136.541L146.801 125.76V147.98H149.601V119.2H146.861L135.601 143.42L124.281 119.2H121.581V148Z" fill="#6C7889"/>
<path d="M35.1 108.5C40.6 108.5 45.45 107.367 49.65 105.1C53.8833 102.8 57.2 99.5833 59.6 95.45C62 91.3167 63.2 86.5 63.2 81V35H55.8V80.05C55.8 83.7833 55.1667 87.0167 53.9 89.75C52.6667 92.45 51.0167 94.6833 48.95 96.45C46.9167 98.1833 44.6833 99.4667 42.25 100.3C39.8167 101.133 37.4333 101.55 35.1 101.55C32.8 101.55 30.4333 101.133 28 100.3C25.5667 99.4667 23.3167 98.1833 21.25 96.45C19.2167 94.6833 17.5667 92.45 16.3 89.75C15.0333 87.0167 14.4 83.7833 14.4 80.05V35L7 35.05V81C7 86.5333 8.2 91.3667 10.6 95.5C13 99.6333 16.3167 102.833 20.55 105.1C24.7833 107.367 29.6333 108.5 35.1 108.5ZM77.2148 107H84.2648V51.4L109.865 107H114.615L140.265 51.4V106.95H147.265V35H140.415L112.265 95.55L83.9648 35H77.2148V107Z" fill="#6C7889"/>
</svg>
