<svg width="172" height="240" viewBox="0 0 172 240" fill="none" xmlns="http://www.w3.org/2000/svg">
<path d="M159.461 158.52V133.536L148.917 137.638L148.886 137.569L148.635 137.112C144.595 130.822 138.06 126.445 130.703 125.111L105.332 120.495V118.492C114.82 112.983 121.768 103.583 123.933 92.4716C130.962 91.0178 136.263 84.7814 136.263 77.3271V39.1391C136.263 28.3481 129.195 18.9374 118.941 15.8752L117.008 13.9421C108.015 4.94893 96.0602 0 83.3438 0C57.0951 0 35.7374 21.3539 35.7374 47.6064V77.3271C35.7374 84.7814 41.0381 91.0178 48.0672 92.4716C50.2362 103.583 57.1802 112.986 66.6682 118.492V120.495L41.301 125.107C33.9511 126.441 27.4208 130.81 23.3766 137.097L23.1447 137.661L12.5392 133.536V158.52C6.1443 158.52 0.940186 163.725 0.940186 170.12V185.585C0.940186 191.98 6.1443 197.184 12.5392 197.184V211.428L86 240L159.461 211.428V197.184C165.856 197.184 171.06 191.98 171.06 185.585V170.12C171.06 163.725 165.856 158.52 159.461 158.52ZM112.577 129.674L129.319 132.716C134.248 133.613 138.613 136.459 141.525 140.511L104.118 155.056L112.577 129.674ZM74.7295 122.038C78.2982 123.128 82.0795 123.723 86 123.723C89.9204 123.723 93.7017 123.128 97.2704 122.038L86 130.489L74.7295 122.038ZM80.1154 135.74L72.2241 143.627L67.1051 128.274L69.568 127.829L80.1154 135.74ZM102.432 127.833L104.895 128.278L99.7758 143.631L91.8845 135.744L102.432 127.833ZM124.663 83.9849V70.6692C126.964 72.0108 128.53 74.4776 128.53 77.3271C128.53 80.1766 126.964 82.6433 124.663 83.9849ZM47.3364 83.9849C45.0359 82.6433 43.4701 80.1766 43.4701 77.3271C43.4701 74.4776 45.0359 72.0108 47.3364 70.6692V83.9849ZM47.3364 57.9953V62.4107C45.96 62.7702 44.6686 63.3115 43.4701 64.0113V47.6064C43.4701 25.6223 61.3558 7.73271 83.3438 7.73271C93.9917 7.73271 104.009 11.8813 111.541 19.413L114.951 22.8269L115.991 23.0821C123.376 24.9264 128.53 31.5301 128.53 39.1391V64.0113C127.331 63.3115 126.04 62.7664 124.663 62.4107V57.9953H112.403C101.925 57.9953 91.9116 52.9922 85.6288 44.6138L82.555 40.5078L74.8726 48.1941C68.5472 54.5156 60.1418 57.9953 51.2028 57.9953H47.3364ZM55.0691 85.0598V65.5501C64.6152 64.6648 73.473 60.5239 80.3396 53.6611L81.8436 52.1571C89.5957 60.7133 100.762 65.728 112.403 65.728H116.931V85.0598C116.931 102.114 103.054 115.991 86 115.991C68.9455 115.991 55.0691 102.114 55.0691 85.0598ZM42.6813 132.716L59.4226 129.674L67.8822 155.056L30.4675 140.507C33.3789 136.451 37.7517 133.613 42.6813 132.716ZM8.67289 185.585V170.12C8.67289 167.985 10.4089 166.253 12.5392 166.253C18.9342 166.253 24.1383 171.457 24.1383 177.852C24.1383 184.247 18.9342 189.451 12.5392 189.451C10.4089 189.451 8.67289 187.719 8.67289 185.585ZM82.1336 230.195L20.2719 206.142V195.545C27.0883 192.552 31.871 185.759 31.871 177.852C31.871 169.946 27.0883 163.152 20.2719 160.16V144.841L82.1336 168.898V230.195ZM70.6544 156.139L86 140.789L101.346 156.135L86 162.105L70.6544 156.139ZM151.728 206.138L89.8663 230.191V168.898L151.728 144.841V160.16C144.912 163.152 140.129 169.946 140.129 177.852C140.129 185.759 144.912 192.552 151.728 195.545V206.138ZM163.327 185.585C163.327 187.719 161.591 189.451 159.461 189.451C153.066 189.451 147.862 184.247 147.862 177.852C147.862 171.457 153.066 166.253 159.461 166.253C161.591 166.253 163.327 167.985 163.327 170.12V185.585Z" fill="#484BF2"/>
</svg>
