<svg width="206" height="230" viewBox="0 0 206 230" fill="none" xmlns="http://www.w3.org/2000/svg">
<path d="M115.969 108.897C116.766 107.216 116.051 105.207 114.369 104.409C112.688 103.611 110.679 104.327 109.881 106.008C108.442 109.04 105.344 111 101.989 111C98.6336 111 95.5358 109.04 94.0969 106.008C93.2991 104.327 91.2898 103.611 89.6088 104.409C87.9278 105.207 87.2118 107.216 88.0091 108.897C90.558 114.268 96.0452 117.738 101.989 117.738C107.932 117.738 113.42 114.267 115.969 108.897Z" fill="#91B3FA"/>
<path d="M77.1022 95.0222C79.7898 95.0222 81.9686 91.7791 81.9686 87.7786C81.9686 83.778 79.7898 80.5349 77.1022 80.5349C74.4146 80.5349 72.2358 83.778 72.2358 87.7786C72.2358 91.7791 74.4146 95.0222 77.1022 95.0222Z" fill="#91B3FA"/>
<path d="M126.876 95.0222C129.564 95.0222 131.742 91.7791 131.742 87.7786C131.742 83.778 129.564 80.5349 126.876 80.5349C124.188 80.5349 122.01 83.778 122.01 87.7786C122.01 91.7791 124.188 95.0222 126.876 95.0222Z" fill="#91B3FA"/>
<path d="M175.225 143.072C174.831 141.254 173.039 140.099 171.219 140.493L133.912 148.579C132.093 148.973 130.939 150.767 131.333 152.585C131.674 154.163 133.071 155.241 134.622 155.241C134.858 155.241 135.098 155.216 135.339 155.164L172.646 147.078C174.465 146.684 175.619 144.891 175.225 143.072Z" fill="#91B3FA"/>
<path d="M171.219 153.013L133.911 161.099C132.093 161.493 130.938 163.286 131.332 165.105C131.674 166.683 133.07 167.761 134.621 167.761C134.858 167.761 135.098 167.736 135.338 167.684L172.646 159.598C174.464 159.204 175.619 157.41 175.225 155.592C174.831 153.773 173.039 152.619 171.219 153.013Z" fill="#91B3FA"/>
<path d="M192.825 131.936H190.809V125.983C190.809 121.822 188.95 117.937 185.708 115.323C182.467 112.711 178.277 111.718 174.211 112.602L156.649 116.407C157.819 113.25 158.514 109.918 158.69 106.525C158.803 104.305 158.892 102.081 158.965 99.855C165.729 98.3794 170.811 92.3468 170.811 85.1463C170.811 77.8617 165.614 71.7699 158.734 70.3822C158.328 61.9423 157.629 53.5114 156.641 45.1267C164.525 36.7151 170.722 27.3448 172.667 20.4543C173.902 16.0825 173.55 12.5844 171.623 10.058C169.844 7.72656 167.419 6.48672 164.609 6.47279C161.393 6.46111 157.879 8.00373 153.876 11.1855C154.027 8.29842 153.521 5.91441 152.357 4.06318C151.192 2.20926 148.809 0 144.073 0C137.774 0 132.825 3.53535 129.209 7.6201C128.855 5.99033 128.254 4.46928 127.301 3.21686C125.701 1.11271 123.36 0 120.533 0C115.073 0 110.766 4.52857 106.48 10.0189C104.684 9.00594 102.193 7.71893 99.2446 6.51098C97.9072 5.96607 96.529 5.46205 95.1347 5.00789C90.1838 3.42035 85.5384 2.72855 81.3275 2.95137C81.2974 2.95271 81.2556 2.95586 81.2165 2.95945C81.2053 2.9599 81.194 2.96035 81.1824 2.96125C80.5597 2.99674 79.9542 3.05199 79.3235 3.13105C72.0641 4.0542 66.3316 7.7324 62.2447 14.0785C54.9336 11.5175 43.1362 10.5948 36.7075 21.0154C35.7304 22.5988 36.2219 24.6747 37.8058 25.6517C38.3574 25.9918 38.9679 26.154 39.5717 26.154C40.7019 26.154 41.8056 25.5857 42.4422 24.5534C48.4509 14.8139 61.6463 21.0751 62.1975 21.3424C63.8448 22.1528 65.8371 21.4956 66.6784 19.8645C69.7754 13.8638 74.1898 10.5764 80.1662 9.81633C80.6258 9.75883 81.0723 9.71795 81.5301 9.691C81.5997 9.6883 81.6711 9.68336 81.7434 9.67752C85.1202 9.50727 88.9323 10.0957 93.0624 11.42C94.2892 11.8194 95.5138 12.2673 96.6961 12.7493C98.9135 13.6576 100.855 14.6257 102.355 15.4396C98.82 20.0639 95.1764 24.4182 91.385 25.8184C89.6394 26.463 88.7468 28.4005 89.3914 30.1462C90.0365 31.8918 91.974 32.784 93.7192 32.1398C99.9422 29.8416 104.719 23.5063 109.339 17.3798C113.101 12.3912 117.364 6.73828 120.533 6.73828C121.437 6.73828 121.731 7.02533 121.936 7.29441C123.596 9.47313 122.793 16.2159 121.728 20.0837C121.246 21.8195 122.215 23.6267 123.927 24.1864C125.64 24.747 127.489 23.8607 128.126 22.1761C128.184 22.0216 134.239 6.73828 144.073 6.73828C146.079 6.73828 146.51 7.42289 146.652 7.6475C148.214 10.1267 146.079 17.2612 144.145 21.3002C143.399 22.8518 143.943 24.7165 145.406 25.6239C146.869 26.5313 148.782 26.189 149.84 24.8306C149.863 24.8 152.239 21.762 155.45 18.7414C160.747 13.7573 163.58 13.2106 164.563 13.2106H164.576C165.165 13.2138 165.677 13.3737 166.265 14.1446C166.805 14.8525 166.774 16.5263 166.182 18.6228C162.875 30.3357 143.931 51.635 129.089 57.3693C109.726 64.851 83.8444 60.8085 71.3948 48.3588C70.4937 47.4577 69.1617 47.1424 67.9524 47.5431C66.7431 47.9442 65.8631 48.9927 65.6789 50.2537C65.6713 50.3049 64.9004 55.4228 62.2163 60.5331C58.8867 66.8738 54.2634 70.0889 48.4752 70.0889C48.4707 70.0889 48.4667 70.0894 48.4626 70.0894C48.3827 70.0876 48.3032 70.0844 48.2232 70.0844C46.4667 70.0844 44.7808 70.3899 43.2117 70.9456C39.7541 56.3325 38.4091 44.5234 39.2267 35.8167C39.4005 33.9641 38.0398 32.3213 36.1873 32.1474C34.3351 31.974 32.6919 33.3343 32.5181 35.1869C31.5877 45.0966 33.1771 58.4465 37.229 74.8708C34.7116 77.5639 33.1663 81.177 33.1663 85.1463C33.1663 92.3481 38.2501 98.382 45.0167 99.8559C45.0899 102.084 45.1784 104.309 45.2925 106.524C45.4578 109.773 46.102 112.974 47.185 116.016L31.4305 112.602C27.3642 111.718 23.173 112.71 19.9314 115.323C16.6898 117.937 14.831 121.822 14.831 125.983V131.936H12.8144C5.74865 131.936 0 137.685 0 144.75V153.229C0 160.294 5.74865 166.043 12.8144 166.043H14.831V201.919C14.831 208.321 19.3712 213.951 25.6266 215.306L93.0768 229.924C93.0808 229.925 93.0849 229.925 93.0885 229.925C93.1814 229.945 93.2767 229.96 93.3724 229.971C93.3939 229.974 93.415 229.979 93.4366 229.981C93.548 229.993 93.6612 229.999 93.7758 229.999C93.7807 229.999 93.7857 230 93.7906 230H111.849C111.854 230 111.859 229.999 111.864 229.999C111.979 229.999 112.092 229.993 112.203 229.981C112.225 229.979 112.246 229.974 112.267 229.971C112.363 229.96 112.458 229.945 112.551 229.925C112.555 229.925 112.559 229.925 112.563 229.924L180.013 215.306C186.268 213.951 190.808 208.321 190.808 201.919V197.325C190.808 195.464 189.3 193.956 187.439 193.956C185.579 193.956 184.07 195.464 184.07 197.325V201.919C184.07 205.172 181.764 208.032 178.586 208.721L115.218 222.454V132.281L175.64 119.186C177.704 118.738 179.833 119.242 181.479 120.569C183.126 121.897 184.071 123.87 184.071 125.983V133.053C179.602 135.056 176.479 139.544 176.479 144.75V153.229C176.479 158.435 179.602 162.923 184.071 164.926V183.848C184.071 185.709 185.579 187.217 187.44 187.217C189.301 187.217 190.809 185.709 190.809 183.848V166.043H192.826C199.892 166.043 205.64 160.294 205.64 153.229V144.75C205.64 137.684 199.891 131.936 192.825 131.936ZM164.073 85.1458C164.073 88.532 162.036 91.447 159.126 92.7439C159.192 87.6641 159.152 82.5758 159.005 77.4862C161.981 78.7552 164.073 81.7102 164.073 85.1458ZM39.9055 85.1458C39.9055 81.7138 41.9934 78.7611 44.9646 77.4898C44.8195 82.5673 44.7858 87.6619 44.8531 92.7439C41.9422 91.4475 39.9055 88.5325 39.9055 85.1458ZM52.0227 106.179C51.5173 96.3902 51.4248 86.4499 51.7374 76.5833C58.6217 75.5393 64.2639 71.1284 68.1829 63.666C69.4371 61.2779 70.3409 58.8984 70.9788 56.8693C77.8438 61.9863 86.905 65.5401 97.0861 67.0378C109.078 68.8019 121.306 67.6007 131.518 63.6552C137.775 61.2379 144.418 56.6442 150.526 51.1332C152.41 69.4335 152.895 87.918 151.96 106.179C151.741 110.423 150.505 114.55 148.38 118.2L111.488 126.195H94.1518L55.3635 117.789C53.3829 114.245 52.2307 110.262 52.0227 106.179ZM97.1611 132.933H108.48V223.262H97.1611V132.933ZM6.73918 153.229V144.75C6.73918 141.4 9.46504 138.674 12.8153 138.674H16.348C19.6982 138.674 22.4241 141.4 22.4241 144.75V153.229C22.4241 156.579 19.6982 159.305 16.348 159.305H12.8153C9.46504 159.305 6.73918 156.579 6.73918 153.229ZM21.5701 201.919V164.926C26.0394 162.923 29.1619 158.435 29.1619 153.229V144.75C29.1619 139.544 26.0394 135.056 21.5701 133.053V125.983C21.5701 123.87 22.5148 121.897 24.1617 120.569C25.8085 119.242 27.9369 118.738 30.0029 119.187L90.4228 132.281V222.454L27.0542 208.721C23.8764 208.032 21.5701 205.172 21.5701 201.919ZM198.902 153.229C198.902 156.579 196.176 159.305 192.825 159.305H189.293C185.942 159.305 183.217 156.579 183.217 153.229V144.75C183.217 141.4 185.942 138.674 189.293 138.674H192.825C196.176 138.674 198.902 141.4 198.902 144.75V153.229Z" fill="#91B3FA"/>
</svg>
