<svg width="240" height="240" viewBox="0 0 240 240" fill="none" xmlns="http://www.w3.org/2000/svg">
<path d="M204.234 102.649L195.977 100.999C193.259 100.454 191.147 98.3454 190.606 95.6272L189.089 88.0444C192.249 85.7097 194.81 82.6252 196.518 79.0478H198.863C206.415 79.0478 212.556 72.9062 212.556 65.3542C212.556 62.2698 211.495 59.4523 209.766 57.1621L211.019 53.4032C212.04 50.3358 212.556 47.1555 212.556 43.9307C212.556 27.4265 199.13 14 182.622 14H173.547C165.129 14 157.282 17.9677 152.295 24.681L149.799 25.3074C147.858 25.7901 146.085 26.6186 144.503 27.6935H20.8468V116.702H54.1187L48.9836 137.242H14V144.089H226.25V129.498C226.25 116.489 216.99 105.199 204.234 102.649ZM103.758 116.702L108.893 137.242H73.1596L78.2946 116.702H103.758ZM110.817 116.702H126.766C124.719 120.553 123.548 124.914 123.548 129.498V137.242H115.952L110.817 116.702ZM130.395 129.498C130.395 119.742 137.338 111.272 146.906 109.358L149.799 108.78L162.736 137.242H130.395V129.498ZM162.212 103.915L168.583 107.099L159.764 114.155L156.646 107.294C158.778 106.616 160.682 105.459 162.212 103.915ZM175.854 116.702H173.944L172.595 112.659L174.899 110.817L177.203 112.659L175.854 116.702ZM167.96 120.402L166.522 129.026L162.688 120.587L166.899 117.219L167.96 120.402ZM174.375 123.548H175.423L177.706 137.242H172.092L174.375 123.548ZM181.838 120.402L182.9 117.219L187.11 120.587L183.276 129.026L181.838 120.402ZM193.153 107.298L190.034 114.158L181.215 107.102L187.586 103.919C189.117 105.459 191.02 106.616 193.153 107.298ZM183.892 96.9658C183.961 97.3081 184.077 97.6334 184.17 97.9654L174.899 102.604L165.625 97.9688C165.718 97.6368 165.834 97.3116 165.903 96.9692L167.022 91.3822C169.494 92.2449 172.137 92.7379 174.899 92.7379C177.662 92.7379 180.305 92.2449 182.776 91.3788L183.892 96.9658ZM192.016 68.7742C192.016 78.2125 184.337 85.8911 174.899 85.8911C165.461 85.8911 157.782 78.2125 157.782 68.7742V55.5017C157.782 50.798 160.959 46.7139 165.512 45.5499C167.111 49.1445 170.716 51.6573 174.899 51.6573H188.593C190.479 51.6573 192.016 53.1909 192.016 55.0806V68.7742ZM198.863 72.1976H198.589C198.75 71.0747 198.863 69.9381 198.863 68.7742V58.504C202.639 58.504 205.71 61.5748 205.71 65.3508C205.71 69.1268 202.639 72.1976 198.863 72.1976ZM151.459 31.9454L156.471 30.6924L157.204 29.5935C160.856 24.1161 166.967 20.8468 173.547 20.8468H182.622C195.354 20.8468 205.71 31.2025 205.71 43.9307C205.71 46.4161 205.309 48.8706 204.525 51.2328L204.039 52.6877C202.44 52.0338 200.694 51.6573 198.863 51.6573H198.233C196.816 47.6827 193.05 44.8105 188.593 44.8105H174.899C173.013 44.8105 171.476 43.2768 171.476 41.3871C171.476 39.4974 173.013 37.9637 174.899 37.9637H178.323V31.1169H174.899C170.195 31.1169 166.217 34.2973 165.009 38.6176L163.9 38.8949C157.549 40.4833 152.846 45.4952 151.425 51.6573H150.935C149.214 51.6573 147.584 52.0133 146.067 52.5918C145.16 49.4389 144.089 44.9645 144.089 41.3871C144.089 36.9127 147.118 33.034 151.459 31.9454ZM150.935 58.504V68.7742C150.935 69.9381 151.048 71.0747 151.209 72.1976H150.935C147.159 72.1976 144.089 69.1268 144.089 65.3508C144.089 61.5748 147.159 58.504 150.935 58.504ZM27.6935 34.5403H138.776C137.817 36.6457 137.242 38.9531 137.242 41.3871C137.242 46.8919 139.176 53.6668 140.224 56.9258C138.385 59.2572 137.242 62.1568 137.242 65.3508C137.242 72.9028 143.383 79.0444 150.935 79.0444H153.281C154.989 82.6218 157.549 85.7063 160.709 88.041L159.193 95.6238C158.648 98.342 156.54 100.451 153.821 100.995L145.564 102.645C140.268 103.703 135.595 106.284 131.915 109.851H27.6935V34.5403ZM61.1777 116.702H71.2356L66.1005 137.242H56.0426L61.1777 116.702ZM219.403 137.242H187.062L199.999 108.78L202.892 109.358C212.461 111.272 219.403 119.745 219.403 129.498V137.242Z" fill="#91B3FA"/>
<path d="M130.395 48.2339H89.3145V61.9274H75.6209V41.3871H34.5403V82.4677H55.0806V103.008H103.008V82.4677H130.395V48.2339ZM41.3871 48.2339H68.7742V75.621H41.3871V48.2339ZM96.1613 96.1613H61.9274V82.4677H75.6209V68.7742H96.1613V96.1613ZM123.548 75.621H103.008V61.9274H96.1613V55.0806H123.548V75.621Z" fill="#91B3FA"/>
<path d="M203.96 193.221C209.297 188.726 212.556 182.04 212.556 174.899V171.476C212.556 160.148 203.344 150.936 192.016 150.936H185.169C173.841 150.936 164.629 160.148 164.629 171.476V174.899C164.629 182.044 167.892 188.733 173.222 193.221C164.927 195.587 158.155 201.28 154.335 208.729C150.484 201.287 143.698 195.614 135.51 193.245C140.747 188.846 144.089 182.256 144.089 174.899V171.476C144.089 160.148 134.876 150.936 123.548 150.936H116.702C105.374 150.936 96.1613 160.148 96.1613 171.476V174.899C96.1613 182.256 99.5025 188.846 104.74 193.245C96.5413 195.618 89.7527 201.297 85.9048 208.753C82.0604 201.297 75.2649 195.6 67.0659 193.225C72.29 188.826 75.621 182.246 75.621 174.899V168.052C75.621 158.614 67.9423 150.936 58.504 150.936H34.5403C30.7643 150.936 27.6935 154.006 27.6935 157.782V174.899C27.6935 182.256 31.0348 188.846 36.2726 193.245C23.428 196.96 14 208.801 14 222.827V226.25H226.25V222.827C226.25 208.835 216.973 196.932 203.96 193.221ZM195.44 198.863C195.44 202.639 192.369 205.71 188.593 205.71C184.817 205.71 181.746 202.639 181.746 198.863C181.746 198.521 181.832 198.202 181.879 197.874C184.04 198.504 186.302 198.863 188.593 198.863C190.883 198.863 193.149 198.504 195.306 197.874C195.354 198.202 195.44 198.521 195.44 198.863ZM171.476 174.899V171.476C171.476 163.924 177.617 157.782 185.169 157.782H192.016C199.568 157.782 205.71 163.924 205.71 171.476V174.899C205.71 181.496 201.845 187.576 195.837 190.4C191.448 192.513 185.765 192.526 181.321 190.387C175.341 187.576 171.476 181.496 171.476 174.899ZM103.008 174.899V171.476C103.008 163.924 109.15 157.782 116.702 157.782H123.548C131.1 157.782 137.242 163.924 137.242 171.476V174.899C137.242 184.338 129.563 192.016 120.125 192.016C110.687 192.016 103.008 184.338 103.008 174.899ZM113.278 198.863H126.972C139.019 198.863 148.991 207.812 150.662 219.403H89.5884C91.259 207.812 101.231 198.863 113.278 198.863ZM34.5403 174.899V157.782H58.504C64.1663 157.782 68.7742 162.39 68.7742 168.052V174.899C68.7742 184.338 61.0955 192.016 51.6573 192.016C42.219 192.016 34.5403 184.338 34.5403 174.899ZM21.0898 219.403C22.757 207.805 32.7567 198.863 44.8105 198.863H58.504C70.5578 198.863 80.5575 207.805 82.2247 219.403H21.0898ZM158.049 219.403C159.378 210.081 166.019 202.44 174.995 199.828C175.502 206.922 181.373 212.557 188.593 212.557C195.809 212.557 201.68 206.925 202.187 199.835C211.167 202.447 217.835 210.081 219.16 219.403H158.049Z" fill="#91B3FA"/>
</svg>
