<svg width="240" height="240" viewBox="0 0 240 240" fill="none" xmlns="http://www.w3.org/2000/svg">
<path d="M193.461 158.52V133.536L182.917 137.638L182.886 137.569L182.635 137.112C178.595 130.822 172.06 126.445 164.703 125.111L139.332 120.495V118.492C148.82 112.983 155.768 103.583 157.933 92.4716C164.962 91.0178 170.263 84.7814 170.263 77.3271V39.1391C170.263 28.3481 163.195 18.9374 152.941 15.8752L151.008 13.9421C142.015 4.94893 130.06 0 117.344 0C91.0951 0 69.7374 21.3539 69.7374 47.6064V77.3271C69.7374 84.7814 75.0381 91.0178 82.0672 92.4716C84.2362 103.583 91.1802 112.986 100.668 118.492V120.495L75.301 125.107C67.9511 126.441 61.4208 130.81 57.3766 137.097L57.1447 137.661L46.5392 133.536V158.52C40.1443 158.52 34.9402 163.725 34.9402 170.12V185.585C34.9402 191.98 40.1443 197.184 46.5392 197.184V211.428L120 240L193.461 211.428V197.184C199.856 197.184 205.06 191.98 205.06 185.585V170.12C205.06 163.725 199.856 158.52 193.461 158.52ZM146.577 129.674L163.319 132.716C168.248 133.613 172.613 136.459 175.525 140.511L138.118 155.056L146.577 129.674ZM108.73 122.038C112.298 123.128 116.079 123.723 120 123.723C123.92 123.723 127.702 123.128 131.27 122.038L120 130.489L108.73 122.038ZM114.115 135.74L106.224 143.627L101.105 128.274L103.568 127.829L114.115 135.74ZM136.432 127.833L138.895 128.278L133.776 143.631L125.885 135.744L136.432 127.833ZM158.663 83.9849V70.6692C160.964 72.0108 162.53 74.4776 162.53 77.3271C162.53 80.1766 160.964 82.6433 158.663 83.9849ZM81.3364 83.9849C79.0359 82.6433 77.4701 80.1766 77.4701 77.3271C77.4701 74.4776 79.0359 72.0108 81.3364 70.6692V83.9849ZM81.3364 57.9953V62.4107C79.96 62.7702 78.6686 63.3115 77.4701 64.0113V47.6064C77.4701 25.6223 95.3558 7.73271 117.344 7.73271C127.992 7.73271 138.009 11.8813 145.541 19.413L148.951 22.8269L149.991 23.0821C157.376 24.9264 162.53 31.5301 162.53 39.1391V64.0113C161.331 63.3115 160.04 62.7664 158.663 62.4107V57.9953H146.403C135.925 57.9953 125.912 52.9922 119.629 44.6138L116.555 40.5078L108.873 48.1941C102.547 54.5156 94.1418 57.9953 85.2028 57.9953H81.3364ZM89.0691 85.0598V65.5501C98.6152 64.6648 107.473 60.5239 114.34 53.6611L115.844 52.1571C123.596 60.7133 134.762 65.728 146.403 65.728H150.931V85.0598C150.931 102.114 137.054 115.991 120 115.991C102.945 115.991 89.0691 102.114 89.0691 85.0598ZM76.6813 132.716L93.4226 129.674L101.882 155.056L64.4675 140.507C67.3789 136.451 71.7517 133.613 76.6813 132.716ZM42.6729 185.585V170.12C42.6729 167.985 44.4089 166.253 46.5392 166.253C52.9342 166.253 58.1383 171.457 58.1383 177.852C58.1383 184.247 52.9342 189.451 46.5392 189.451C44.4089 189.451 42.6729 187.719 42.6729 185.585ZM116.134 230.195L54.2719 206.142V195.545C61.0883 192.552 65.871 185.759 65.871 177.852C65.871 169.946 61.0883 163.152 54.2719 160.16V144.841L116.134 168.898V230.195ZM104.654 156.139L120 140.789L135.346 156.135L120 162.105L104.654 156.139ZM185.728 206.138L123.866 230.191V168.898L185.728 144.841V160.16C178.912 163.152 174.129 169.946 174.129 177.852C174.129 185.759 178.912 192.552 185.728 195.545V206.138ZM197.327 185.585C197.327 187.719 195.591 189.451 193.461 189.451C187.066 189.451 181.862 184.247 181.862 177.852C181.862 171.457 187.066 166.253 193.461 166.253C195.591 166.253 197.327 167.985 197.327 170.12V185.585Z" fill="#484BF2"/>
</svg>
