<svg width="440" height="205" viewBox="0 0 440 205" fill="none" xmlns="http://www.w3.org/2000/svg">
<g clip-path="url(#clip0)">
<path d="M528.252 104.776C521.751 104.654 515.206 103.986 508.47 102.388C492.37 98.5524 479.052 86.3687 462.449 83.0826C414.382 73.5554 383.644 107.45 344.241 127.109C282.301 158.009 258.444 120.076 211.837 85.3676C175.805 58.5243 122.668 40.4058 86.4592 79.4102C62.8413 104.867 75.8017 147.887 36.5952 146.571C14.5717 145.833 -1.38374 119.188 -19.9016 110.974C-45.4906 99.6147 -67.3957 101.824 -89.1516 108.292L245.706 413.36L528.252 104.776ZM380.751 118.745C385.476 116.57 389.81 113.659 394.546 111.471C398.873 109.479 403.284 107.669 407.575 105.58C416.135 101.403 424.538 97.6711 433.952 95.9793C446.341 93.7496 463.986 91.4075 473.21 101.843C473.702 102.399 473.593 103.498 473.123 104.034C469.446 108.073 463.12 107.417 458.197 107.371C449.87 107.282 441.414 107.495 433.102 108.051C423.581 108.698 414.563 110.458 405.965 114.768C402.041 116.73 398.241 119.058 394.197 120.763C390.121 122.48 386.108 122.784 381.72 122.975C380.595 123.018 379.939 122.208 379.827 121.328C379.464 120.47 379.634 119.259 380.751 118.745ZM233.555 128.325C238.585 127.207 244.939 131.022 246.651 135.784C247.216 137.331 247.267 139.145 246.82 140.818C246.647 144.402 243.442 147.106 239.817 146.713C235.995 146.307 231.707 143.562 229.78 140.243C227.276 135.913 227.799 129.599 233.555 128.325ZM95.925 98.605C99.0739 88.2376 108.466 81.1004 118.905 79.3152C125.813 78.1275 133.363 78.221 140.37 78.1332C146.612 78.0605 152.871 78.4026 159.036 79.4164C170.97 81.3757 182.473 85.6744 192.582 92.2936C203.151 99.2077 211.618 108.761 220.25 117.836C221.107 118.746 221.52 119.776 221.595 120.811C223.229 125.566 218.593 129.126 214.074 129.072C208.406 128.996 203.972 125.088 199.018 122.911C193.351 120.419 187.011 119.413 180.845 118.924C166.801 117.811 152.553 120.043 138.607 121.648C128.232 122.84 115.87 125.473 105.804 121.542C96.5362 117.901 93.1235 107.818 95.925 98.605ZM39.1674 113.953C28.5138 114.469 19.5214 106.243 19.0934 95.5896C18.6654 84.9361 26.9632 75.8722 37.6167 75.3562C48.2703 74.8402 57.2627 83.0665 57.6907 93.72C58.1187 104.374 49.8209 113.437 39.1674 113.953ZM305.235 114.977C281.788 116.113 262.021 98.0296 261.079 74.5831C260.137 51.1366 278.377 31.2122 301.824 30.0765C325.27 28.9408 345.038 47.0242 345.98 70.4707C346.922 93.9171 328.681 113.842 305.235 114.977ZM380.538 83.4957C372.002 83.9092 364.815 77.3343 364.484 68.8088C364.141 60.2729 370.773 53.0287 379.298 52.6267C387.834 52.2132 395.021 58.7881 395.353 67.3136C395.695 75.8277 389.052 83.0833 380.538 83.4957Z" fill="white"/>
</g>
<defs>
<clipPath id="clip0">
<rect width="440" height="205" fill="white"/>
</clipPath>
</defs>
</svg>
